<?xml version="1.0" standalone="no"?>
<svg version="1.0" xmlns="http://www.w3.org/2000/svg"
 width="347.000000pt" height="347.000000pt" viewBox="0 0 347.000000 347.000000"
 preserveAspectRatio="xMidYMid meet">
<metadata>
Created by potrace 1.11, written by Peter Selinger 2001-2013
</metadata>
<g transform="translate(0.000000,347.000000) scale(0.100000,-0.100000)"
fill="#000000" stroke="none">
<path d="M1158 3453 c314 -2 830 -2 1145 0 314 1 57 2 -573 2 -630 0 -887 -1
-572 -2z"/>
<path d="M830 3273 l-176 -3 -18 -31 c-32 -55 -147 -168 -217 -214 l-67 -46
-9 -67 c-15 -124 -7 -328 16 -450 55 -287 197 -577 417 -852 93 -116 293 -320
444 -453 114 -101 466 -372 498 -385 24 -9 296 194 522 389 505 435 811 890
885 1313 23 137 18 402 -11 498 -3 9 -18 21 -34 26 -87 31 -213 136 -267 224
l-36 58 -886 -2 c-487 -1 -965 -4 -1061 -5z m350 -1298 l181 -75 177 71 c126
51 190 72 222 73 34 0 86 -17 216 -72 l172 -73 176 71 c97 38 187 70 200 70
13 0 35 -9 50 -21 32 -25 36 -85 9 -117 -23 -26 -397 -182 -436 -182 -16 0
-113 34 -215 75 l-186 75 -178 -75 c-97 -41 -191 -75 -208 -75 -42 0 -421 155
-442 181 -44 53 -1 145 69 148 6 1 93 -33 193 -74z m728 -361 c2 -1 -35 -123
-83 -269 -47 -147 -88 -265 -91 -262 -10 9 -182 536 -177 541 5 5 345 -4 351
-10z"/>
<path d="M3291 2944 c0 -11 3 -14 6 -6 3 7 2 16 -1 19 -3 4 -6 -2 -5 -13z"/>
<path d="M3302 2880 c0 -14 2 -19 5 -12 2 6 2 18 0 25 -3 6 -5 1 -5 -13z"/>
<path d="M151 2834 c0 -11 3 -14 6 -6 3 7 2 16 -1 19 -3 4 -6 -2 -5 -13z"/>
<path d="M3314 2715 c0 -66 1 -92 3 -57 2 34 2 88 0 120 -2 31 -3 3 -3 -63z"/>
<path d="M151 2624 c0 -11 3 -14 6 -6 3 7 2 16 -1 19 -3 4 -6 -2 -5 -13z"/>
<path d="M3311 2574 c0 -11 3 -14 6 -6 3 7 2 16 -1 19 -3 4 -6 -2 -5 -13z"/>
<path d="M3302 2520 c0 -14 2 -19 5 -12 2 6 2 18 0 25 -3 6 -5 1 -5 -13z"/>
<path d="M3291 2444 c0 -11 3 -14 6 -6 3 7 2 16 -1 19 -3 4 -6 -2 -5 -13z"/>
<path d="M2135 675 c-37 -36 -34 -87 10 -152 33 -50 43 -73 29 -73 -23 0 -390
104 -395 112 -4 6 -28 11 -55 12 -44 2 -53 -1 -81 -30 -38 -38 -41 -66 -13
-111 13 -22 31 -35 57 -42 427 -111 438 -114 428 -131 -3 -5 -29 -20 -56 -31
-60 -26 -79 -51 -79 -102 0 -48 35 -87 80 -87 39 0 405 182 420 209 25 47 12
76 -109 259 -65 98 -126 182 -136 186 -35 13 -76 6 -100 -19z"/>
<path d="M1210 565 c-173 -86 -192 -98 -205 -130 -10 -23 -12 -41 -6 -57 20
-48 237 -353 262 -367 46 -26 111 7 125 64 5 19 -4 42 -34 92 -23 37 -39 70
-37 73 2 4 102 -20 222 -52 120 -32 234 -58 254 -58 48 0 83 37 83 87 0 59
-26 73 -265 136 -118 32 -225 62 -239 68 -24 11 -23 12 35 41 102 51 125 84
101 143 -16 37 -42 55 -79 55 -14 0 -111 -43 -217 -95z"/>
</g>
</svg>
